HIERARCHY
ROOT Hips
{
  OFFSET 54.0064 85.1414 17.1402
  CHANNELS 6 Xposition Yposition Zposition Zrotation Xrotation Yrotation
  JOINT spine
  {
    OFFSET 0 6.3926 0.367606
    CHANNELS 3 Zrotation Xrotation Yrotation
    JOINT spine1
    {
      OFFSET 0 9.17611 0
      CHANNELS 3 Zrotation Xrotation Yrotation
      JOINT spine2
      {
        OFFSET 0 8.79238 0
        CHANNELS 3 Zrotation Xrotation Yrotation
        JOINT Neck
        {
          OFFSET 0 22.5737 1.07624
          CHANNELS 3 Zrotation Xrotation Yrotation
          JOINT Head
          {
            OFFSET 0 6.82011 0
            CHANNELS 3 Zrotation Xrotation Yrotation
            End Site
            {
              OFFSET 0 16.5085 -5.44427
            }
          }
        }
        JOINT RightShoulder
        {
          OFFSET -3.70221 9.49509 -0.515508
          CHANNELS 3 Zrotation Xrotation Yrotation
          JOINT RightArm
          {
            OFFSET 0 12.4537 0
            CHANNELS 3 Zrotation Xrotation Yrotation
            JOINT RightArmRoll
            {
              OFFSET 0 6.28686 0
              CHANNELS 3 Zrotation Xrotation Yrotation
              JOINT RightForeArm
              {
                OFFSET 0 18.3114 0
                CHANNELS 3 Zrotation Xrotation Yrotation
                JOINT RightForeArmRoll
                {
                  OFFSET 0 7.05483 0
                  CHANNELS 3 Zrotation Xrotation Yrotation
                  JOINT RightHand
                  {
                    OFFSET 0 14.1575 0
                    CHANNELS 3 Zrotation Xrotation Yrotation
                    End Site
                    {
                      OFFSET 0 0 0
                    }
                  }
                }
              }
            }
          }
        }
        JOINT LeftShoulder
        {
          OFFSET 3.70221 9.49509 -0.515508
          CHANNELS 3 Zrotation Xrotation Yrotation
          JOINT LeftArm
          {
            OFFSET 0 12.4537 0
            CHANNELS 3 Zrotation Xrotation Yrotation
            JOINT LeftArmRoll
            {
              OFFSET 0 6.28686 0
              CHANNELS 3 Zrotation Xrotation Yrotation
              JOINT LeftForeArm
              {
                OFFSET 0 18.3114 0
                CHANNELS 3 Zrotation Xrotation Yrotation
                JOINT LeftForeArmRoll
                {
                  OFFSET 0 7.05483 0
                  CHANNELS 3 Zrotation Xrotation Yrotation
                  JOINT LeftHand
                  {
                    OFFSET 0 14.1575 0
                    CHANNELS 3 Zrotation Xrotation Yrotation
                    End Site
                    {
                      OFFSET 0 0 0
                    }
                  }
                }
              }
            }
          }
        }
      }
    }
  }
  JOINT RightUpLeg
  {
    OFFSET -5.66616 -1.03903 -0.87161
    CHANNELS 3 Zrotation Xrotation Yrotation
    JOINT RightUpLegRoll
    {
      OFFSET 0 16.6005 0
      CHANNELS 3 Zrotation Xrotation Yrotation
      JOINT RightLeg
      {
        OFFSET 0 -20.5572 0
        CHANNELS 3 Zrotation Xrotation Yrotation
        JOINT RightLegRoll
        {
          OFFSET 0 20.6244 0
          CHANNELS 3 Zrotation Xrotation Yrotation
          JOINT RightFoot
          {
            OFFSET 0 17.1664 0
            CHANNELS 3 Zrotation Xrotation Yrotation
            JOINT RightToeBase
            {
              OFFSET 0 14.3502 0
              CHANNELS 3 Zrotation Xrotation Yrotation
              End Site
              {
                OFFSET 0.00608252 6.94971 -0.801061
              }
            }
          }
        }
      }
    }
  }
  JOINT LeftUpLeg
  {
    OFFSET 5.66616 -1.03903 -0.87161
    CHANNELS 3 Zrotation Xrotation Yrotation
    JOINT LeftUpLegRoll
    {
      OFFSET 0 16.6006 0
      CHANNELS 3 Zrotation Xrotation Yrotation
      JOINT LeftLeg
      {
        OFFSET 0 20.5571 0
        CHANNELS 3 Zrotation Xrotation Yrotation
        JOINT LeftLegRoll
        {
          OFFSET 0 20.8151 0
          CHANNELS 3 Zrotation Xrotation Yrotation
          JOINT LeftFoot
          {
            OFFSET 0 16.9757 0
            CHANNELS 3 Zrotation Xrotation Yrotation
            JOINT LeftToeBase
            {
              OFFSET 0 14.3502 0
              CHANNELS 3 Zrotation Xrotation Yrotation
              End Site
              {
                OFFSET -0.0272592 6.94971 -0.80106
              }
            }
          }
        }
      }
    }
  }
}
MOTION
Frames: 6
Frame Time: 0.00208333
48.6233 84.5039 10.0427 1.07142 -0.132985 33.7549 0.295104 -1.19036 -0.0132636 0.590061 1.62188 -0.0587152 0.591246 3.26691 -0.0686482 15.4647 5.40746 21.6439 -25.4607 3.38082 24.5309 25.6401 -24.1756 -22.7187 65.826 35.6899 48.5819 -1.49484e-007 -8.44618e-007 -4.05209e-006 167.259 77.5886 -162.502 -6.50481e-007 -4.96401e-006 -2.99999 8.02888 -4.95144 0.697699 -34.5262 -6.33606 2.51576 -99.1035 22.3683 -5.52286 -1.28315e-006 8.95173e-007 5.55673e-006 -7.81364 14.7286 1.72349 -5.12339e-006 -1.00348e-006 3 -8.02889 -4.95143 -0.697681 176.118 5.46299 2.62422 180 7.01488e-015 178.691 175.817 22.2225 179.974 -6.74829e-008 -6.68015e-007 0.612839 -29.1198 75.9243 30.0878 8.32773 28.0113 -3.57069 -168.879 9.9343 -3.53814 4.54188e-006 -4.6773e-006 -1.0584 -1.33369 -14.659 0.574675 5.45647e-007 -1.92831e-007 -0.111758 17.8793 67.8133 -19.3799 -8.13651 25.2329 3.47999 
48.6849 84.4981 10.0736 1.04988 -0.165748 33.9425 0.290438 -1.19614 -0.0111913 0.580745 1.61034 -0.0540352 0.581864 3.25537 -0.0638093 15.482 5.323 21.5781 -25.3899 3.40345 24.4659 25.6335 -24.2608 -22.8225 65.6793 35.8166 49.1676 -1.49484e-007 -8.44618e-007 -4.05209e-006 167.002 77.5013 -162.069 -6.50481e-007 -4.96401e-006 -2.99999 8.02888 -4.95144 0.697699 -34.5544 -6.43528 2.61375 -99.0749 22.342 -5.68565 -1.28315e-006 8.95173e-007 5.55673e-006 -7.71971 14.5339 1.69486 -5.12339e-006 -1.00348e-006 3 -8.02889 -4.95143 -0.697681 176.158 5.4002 2.59908 180 7.01488e-015 178.691 175.834 22.2623 179.973 -6.74829e-008 -6.68015e-007 0.614802 -29.164 75.9593 30.1554 8.33116 28.0594 -3.57223 -168.867 9.99114 -3.54791 4.54188e-006 -4.6773e-006 -1.05615 -1.3301 -14.7339 0.580502 5.45647e-007 -1.92831e-007 -0.10751 17.819 67.7892 -19.3603 -8.13651 25.2329 3.47999 
48.7339 84.5048 10.0859 1.02973 -0.196986 34.1332 0.285483 -1.202 -0.00917254 0.570849 1.59862 -0.0494303 0.571903 3.24365 -0.059036 15.4935 5.2334 21.5102 -25.3122 3.43078 24.3981 25.6278 -24.3472 -22.9275 65.5286 35.9436 49.753 -1.49484e-007 -8.44618e-007 -4.05209e-006 166.749 77.4138 -161.64 -6.50481e-007 -4.96401e-006 -2.99999 8.02888 -4.95144 0.697699 -34.5851 -6.5393 2.71647 -99.049 22.3225 -5.84884 -1.28315e-006 8.95173e-007 5.55673e-006 -7.6206 14.3493 1.66715 -5.12339e-006 -1.00348e-006 3 -8.02889 -4.95143 -0.697681 176.196 5.33615 2.57478 180 7.01488e-015 178.691 175.851 22.2997 179.971 -6.74829e-008 -6.68016e-007 0.616936 -29.2044 75.9926 30.2194 8.33467 28.109 -3.57381 -168.859 10.0499 -3.55448 4.54188e-006 -4.6773e-006 -1.05408 -1.32519 -14.81 0.586078 5.45647e-007 -1.92831e-007 -0.10413 17.768 67.7701 -19.3448 -8.13651 25.2329 3.47999 
48.795 84.4915 10.1035 1.01029 -0.226484 34.3266 0.280294 -1.20803 -0.00729343 0.560486 1.58658 -0.0450777 0.561477 3.23161 -0.0545076 15.5001 5.13902 21.4408 -25.2299 3.46152 24.3279 25.6238 -24.4356 -23.0343 65.3737 36.0711 50.3373 -1.49484e-007 -8.44618e-007 -4.05209e-006 166.502 77.3253 -161.218 -6.50481e-007 -4.96401e-006 -2.99999 8.02888 -4.95144 0.697699 -34.6181 -6.64889 2.82472 -99.0253 22.3087 -6.01949 -1.28315e-006 8.95173e-007 5.55673e-006 -7.51143 14.1664 1.63912 -5.12339e-006 -1.00348e-006 3 -8.02889 -4.95143 -0.697681 176.233 5.27167 2.55125 180 7.01488e-015 178.691 175.869 22.3351 179.969 -6.74829e-008 -6.68015e-007 0.619225 -29.2437 76.0251 30.2822 8.33819 28.159 -3.5754 -168.854 10.112 -3.55901 4.54188e-006 -4.6773e-006 -1.05214 -1.31943 -14.8884 0.591483 5.45647e-007 -1.92831e-007 -0.101441 17.7247 67.7551 -19.3327 -8.13651 25.2329 3.47999 
48.8528 84.4866 10.1159 0.991553 -0.254471 34.5226 0.274879 -1.2142 -0.00550073 0.549673 1.57426 -0.0408723 0.550603 3.21929 -0.0501192 15.5021 5.04035 21.3699 -25.1428 3.49534 24.2552 25.621 -24.5254 -23.1425 65.2151 36.1989 50.9207 -1.49484e-007 -8.44618e-007 -4.05209e-006 166.261 77.2359 -160.802 -6.50481e-007 -4.96401e-006 -2.99999 8.02888 -4.95144 0.697699 -34.653 -6.76327 2.93773 -99.0037 22.3003 -6.19533 -1.28315e-006 8.95173e-007 5.55673e-006 -7.39421 13.9868 1.61104 -5.12339e-006 -1.00348e-006 3 -8.02889 -4.95143 -0.697681 176.269 5.20668 2.52838 180 7.01488e-015 178.691 175.887 22.3686 179.967 -6.74829e-008 -6.68016e-007 0.621657 -29.282 76.0571 30.3438 8.34171 28.2094 -3.57699 -168.85 10.1769 -3.56161 4.54188e-006 -4.6773e-006 -1.0503 -1.31293 -14.9687 0.596739 5.45647e-007 -1.92831e-007 -0.0993472 17.688 67.7437 -19.3234 -8.13651 25.2329 3.47999 
48.9154 84.4785 10.14 0.973512 -0.281174 34.7214 0.269249 -1.2205 -0.00374126 0.538429 1.56168 -0.0367092 0.539298 3.20671 -0.045766 15.4999 4.93789 21.2974 -25.0509 3.5319 24.18 25.6195 -24.6163 -23.2517 65.0535 36.327 51.5037 -1.49484e-007 -8.44618e-007 -4.05209e-006 166.025 77.1453 -160.392 -6.50481e-007 -4.96401e-006 -2.99999 8.02888 -4.95144 0.697699 -34.6896 -6.88164 3.05475 -98.984 22.2972 -6.37406 -1.28315e-006 8.95173e-007 5.55673e-006 -7.27093 13.8122 1.5832 -5.12339e-006 -1.00348e-006 3 -8.02889 -4.95143 -0.697681 176.305 5.14108 2.50604 180 7.01488e-015 178.691 175.905 22.4004 179.964 -6.74829e-008 -6.68015e-007 0.624218 -29.3193 76.0884 30.4043 8.34525 28.2604 -3.57859 -168.849 10.2441 -3.56242 4.54188e-006 -4.6773e-006 -1.04852 -1.30578 -15.0503 0.601868 5.45647e-007 -1.92831e-007 -0.0977505 17.6567 67.7354 -19.3167 -8.13651 25.2329 3.47999 
